<svg xmlns="http://www.w3.org/2000/svg" viewBox="0 0 310.39 310.39"><defs><style>.cls-1{fill:#fbb03b;}.cls-2{fill:#fff;}</style></defs><g id="Слой_2" data-name="Слой 2"><g id="Слой_1-2" data-name="Слой 1"><circle class="cls-1" cx="155.19" cy="155.19" r="155.19"/><path class="cls-2" d="M113.11,198.44c-2.16,7.95-8.51,10.52-14,9.77a12.35,12.35,0,0,1-10.38-11.55c-.35-5.81,3.62-10.93,9.93-12.57a70.7,70.7,0,0,1-13.23-32,12.28,12.28,0,0,1-18.35-14.5,12.21,12.21,0,0,1,16.29-6.89c2,.88,2,.88,2.4-1.23A70.36,70.36,0,0,1,98.23,100.4a6,6,0,0,0,.37-.64A12.45,12.45,0,0,1,90,93,12.2,12.2,0,0,1,89,85a12.38,12.38,0,0,1,11.13-9.52c6.09-.37,10.67,3.08,13,9.88A70.8,70.8,0,0,1,145,72.1c-3.24-6.6-2.29-12.49,2.5-16.36a12.26,12.26,0,0,1,15.38-.09c4.89,3.89,5.84,9.64,2.61,16.42a70.88,70.88,0,0,1,31.89,13.26,12.63,12.63,0,0,1,6.27-8.48,12,12,0,0,1,7.6-1.32,12.19,12.19,0,0,1,10.35,11c.68,6-2.56,10.43-9.75,13.37A70.46,70.46,0,0,1,225,131.49c8.08-2.9,13-1.94,16.77,3.16a12.24,12.24,0,0,1-.11,14.63c-3.76,5-8.76,5.87-16.66,3a70.6,70.6,0,0,1-13.17,31.69c7.3,2.69,10.57,7.43,9.71,13.86a12.18,12.18,0,0,1-10.82,10.46c-6.41.5-11.18-2.95-13.3-9.73-2.36,1.49-4.66,3-7,4.43-1.55.92-3.16,1.74-4.79,2.5-.81.39-.92.76-.59,1.58q5.91,14.4,11.71,28.83c.4,1,1,1.09,1.84,1.09,3.49,0,7,0,10.47,0,1.11,0,1.5.24,1.51,1.44.05,4.69.1,4.69-4.55,4.69q-51.9,0-103.8.05c-1.74,0-2.14-.47-2.09-2.13.12-4,0-4,4.1-4,2.62,0,5.24,0,7.85,0a1.58,1.58,0,0,0,1.78-1.17q5.77-14.35,11.64-28.66c.26-.62.54-1.12-.32-1.52A69.55,69.55,0,0,1,113.11,198.44Z"/><path class="cls-1" d="M152,134.22c-4.34-4.31-8.59-8.51-12.81-12.74-8.64-8.63-17.24-17.29-25.92-25.88-1.07-1.06-1-1.55.12-2.48a64.27,64.27,0,0,1,37.28-15.38c.94-.07,1.59-.17,1.59,1.23-.06,18.25,0,36.5-.05,54.75C152.17,133.82,152.09,133.92,152,134.22Z"/><path class="cls-1" d="M162.87,145h3.76c17,0,33.92,0,50.87,0,1.7,0,2,.38,1.83,2A64.25,64.25,0,0,1,203.76,184c-.66.77-1,1.14-2,.19q-19.23-19.36-38.56-38.66A5.16,5.16,0,0,1,162.87,145Z"/><path class="cls-1" d="M147.73,145c-13.24,13.27-26.18,26.22-39.08,39.21-.92.93-1.28.63-2-.17a64,64,0,0,1-15.57-37.38c-.12-1.55.33-1.69,1.63-1.68,13.83,0,27.66,0,41.49,0Z"/><path class="cls-1" d="M198.16,94.16,158.35,134c-.3-.24-.08-.71-.08-1.1q0-26.75,0-53.49c0-1.17,0-1.78,1.55-1.66a64.14,64.14,0,0,1,38,16.06A3,3,0,0,1,198.16,94.16Z"/><path class="cls-1" d="M147.79,138.78H145.5q-26.25,0-52.51,0c-1.49,0-2-.2-1.86-1.89a63.64,63.64,0,0,1,15.47-37c.54-.63.91-1.42,2-.36C121.48,112.51,134.45,125.44,147.79,138.78Z"/><path class="cls-1" d="M162.64,138.39a20.13,20.13,0,0,0,1.81-1.4q18.51-18.5,37-37c1.16-1.17,1.66-1,2.64.13a63.69,63.69,0,0,1,15.24,37.33c.06.86.11,1.38-1,1.38q-27.47-.08-54.94-.07A5.51,5.51,0,0,1,162.64,138.39Z"/><path class="cls-1" d="M146.14,155.47c.26.65-.19,1.11-.39,1.6-5.59,13.82-11.23,27.62-16.79,41.45-.57,1.44-1,1.67-2.46.92a71,71,0,0,1-13.58-9.18c-.74-.65-.77-1-.06-1.71q16.44-16.35,32.83-32.77A3.22,3.22,0,0,1,146.14,155.47Z"/><path class="cls-1" d="M164.24,155.19c3.34,3.36,6.46,6.5,9.58,9.62,7.8,7.81,15.58,15.62,23.42,23.38.94.94,1.14,1.39,0,2.37a71,71,0,0,1-13.84,9.11c-.86.43-1.23.38-1.61-.57Q173,177.52,164.24,156A4,4,0,0,1,164.24,155.19Z"/><path class="cls-1" d="M158.42,157.92c1.34,3.29,2.49,6.13,3.64,9,4.63,11.4,9.23,22.8,13.9,34.17.48,1.16.5,1.6-.86,2a69.79,69.79,0,0,1-15.35,3c-1.07.08-1.52-.07-1.52-1.33.05-15.27,0-30.54,0-45.8C158.26,158.74,158.31,158.59,158.42,157.92Z"/><path class="cls-1" d="M152.18,158.18c0,15.71,0,31.09,0,46.47,0,1.18-.31,1.47-1.46,1.39a68.12,68.12,0,0,1-15.88-3.13c-.7-.23-1-.47-.62-1.28q8.72-21.36,17.38-42.76A6.67,6.67,0,0,1,152.18,158.18Z"/><path class="cls-1" d="M161.31,218.46a6.09,6.09,0,1,1-6.21-6.06A6.1,6.1,0,0,1,161.31,218.46Z"/><path class="cls-1" d="M101.1,93.8A6,6,0,0,1,95,87.71a6.11,6.11,0,0,1,6-6.16,6.21,6.21,0,0,1,6.29,6A6.11,6.11,0,0,1,101.1,93.8Z"/><path class="cls-1" d="M237.94,141.93a6.1,6.1,0,0,1-6.2,6.08,6.15,6.15,0,0,1,.12-12.29A6.13,6.13,0,0,1,237.94,141.93Z"/><path class="cls-1" d="M215.49,196a6.13,6.13,0,0,1-6.08,6.22,6.15,6.15,0,0,1-.12-12.29A6.08,6.08,0,0,1,215.49,196Z"/><path class="cls-1" d="M72.5,141.93a6.14,6.14,0,0,1,6.08-6.21A6.15,6.15,0,0,1,78.7,148,6.1,6.1,0,0,1,72.5,141.93Z"/><path class="cls-1" d="M209.39,93.8a6.06,6.06,0,0,1-6.07-6.19,6.1,6.1,0,0,1,12.2.09A6,6,0,0,1,209.39,93.8Z"/><path class="cls-1" d="M101.16,189.92a6.15,6.15,0,1,1-6.24,6A6.13,6.13,0,0,1,101.16,189.92Z"/><path class="cls-1" d="M155.26,71.35a6.12,6.12,0,0,1-.08-12.24,6.1,6.1,0,0,1,6.13,6.2A6,6,0,0,1,155.26,71.35Z"/></g></g></svg>