<svg xmlns="http://www.w3.org/2000/svg" viewBox="0 0 310.39 310.39"><defs><style>.cls-1{fill:#312783;}.cls-2{fill:#fff;}</style></defs><g id="Слой_2" data-name="Слой 2"><g id="Слой_1-2" data-name="Слой 1"><g id="Дендрологические_парки_2" data-name="Дендрологические парки 2"><circle class="cls-1" cx="155.19" cy="155.19" r="155.19"/><path class="cls-2" d="M113.11,205.6c-2.16,8-8.51,10.52-14,9.77a12.35,12.35,0,0,1-10.38-11.56c-.35-5.8,3.62-10.92,9.93-12.56a70.75,70.75,0,0,1-13.23-32,12.43,12.43,0,0,1-10.52,1.53,12.23,12.23,0,1,1,8.46-22.92c2,.88,2,.88,2.4-1.23a70.36,70.36,0,0,1,12.46-29.06,6.37,6.37,0,0,0,.37-.65A12.4,12.4,0,0,1,90,100.14a12.17,12.17,0,0,1-.91-8,12.37,12.37,0,0,1,11.13-9.52c6.09-.37,10.67,3.08,13,9.88A70.58,70.58,0,0,1,145,79.26c-3.24-6.6-2.29-12.49,2.5-16.36a12.26,12.26,0,0,1,15.38-.09c4.89,3.88,5.84,9.64,2.61,16.42a70.88,70.88,0,0,1,31.89,13.26A12.63,12.63,0,0,1,203.63,84a11.93,11.93,0,0,1,7.6-1.32,12.19,12.19,0,0,1,10.35,11c.68,5.94-2.56,10.43-9.75,13.36A70.54,70.54,0,0,1,225,138.65c8.08-2.9,13-2,16.77,3.16a12.23,12.23,0,0,1-.11,14.62c-3.76,5-8.76,5.88-16.66,3a70.64,70.64,0,0,1-13.17,31.69c7.3,2.69,10.57,7.42,9.71,13.86a12.19,12.19,0,0,1-10.82,10.46c-6.41.5-11.18-3-13.3-9.73-2.36,1.49-4.66,3-7,4.43-1.55.92-3.16,1.74-4.79,2.5-.81.38-.92.76-.59,1.58q5.91,14.38,11.71,28.83c.4,1,1,1.09,1.84,1.08,3.49,0,7,0,10.47,0,1.11,0,1.5.24,1.51,1.44.05,4.69.1,4.69-4.55,4.69q-51.9,0-103.8,0c-1.74,0-2.14-.46-2.09-2.12.12-4,0-4,4.1-4,2.62,0,5.24,0,7.85,0a1.58,1.58,0,0,0,1.78-1.17q5.77-14.35,11.64-28.66c.26-.62.54-1.12-.32-1.52A69.55,69.55,0,0,1,113.11,205.6Z"/><path class="cls-1" d="M152,141.38c-4.34-4.31-8.59-8.52-12.81-12.74-8.64-8.63-17.24-17.29-25.92-25.88-1.07-1.06-1-1.55.12-2.48A64.27,64.27,0,0,1,150.63,84.9c.94-.08,1.59-.17,1.59,1.23-.06,18.25,0,36.5-.05,54.75C152.17,141,152.09,141.08,152,141.38Z"/><path class="cls-1" d="M162.87,152.13h3.76c17,0,33.92,0,50.87,0,1.7,0,2,.38,1.83,2a64.25,64.25,0,0,1-15.57,37.05c-.66.77-1,1.14-2,.19Q182.57,172,163.24,152.7A4.55,4.55,0,0,1,162.87,152.13Z"/><path class="cls-1" d="M147.73,152.15c-13.24,13.26-26.18,26.22-39.08,39.21-.92.93-1.28.63-2-.17A64,64,0,0,1,91.12,153.8c-.12-1.54.33-1.68,1.63-1.68,13.83,0,27.66,0,41.49,0Z"/><path class="cls-1" d="M198.16,101.31l-39.81,39.81c-.3-.24-.08-.71-.08-1.1q0-26.75,0-53.49c0-1.17,0-1.78,1.55-1.66a64.14,64.14,0,0,1,38,16.06A4.17,4.17,0,0,1,198.16,101.31Z"/><path class="cls-1" d="M147.79,145.94H145.5q-26.25,0-52.51,0c-1.49,0-2-.2-1.86-1.89a63.59,63.59,0,0,1,15.47-37c.54-.63.91-1.42,2-.37C121.48,119.66,134.45,132.6,147.79,145.94Z"/><path class="cls-1" d="M162.64,145.55a18.36,18.36,0,0,0,1.81-1.41q18.51-18.48,37-37c1.16-1.17,1.66-1,2.64.14a63.69,63.69,0,0,1,15.24,37.33c.06.85.11,1.38-1,1.37q-27.47-.06-54.94-.07A4.15,4.15,0,0,1,162.64,145.55Z"/><path class="cls-1" d="M146.14,162.63c.26.65-.19,1.11-.39,1.6-5.59,13.82-11.23,27.62-16.79,41.45-.57,1.43-1,1.66-2.46.92a71,71,0,0,1-13.58-9.18c-.74-.65-.77-1-.06-1.71q16.44-16.35,32.83-32.77A3.22,3.22,0,0,1,146.14,162.63Z"/><path class="cls-1" d="M164.24,162.35c3.34,3.36,6.46,6.5,9.58,9.62,7.8,7.8,15.58,15.62,23.42,23.38.94.94,1.14,1.39,0,2.37a71,71,0,0,1-13.84,9.11c-.86.43-1.23.37-1.61-.57q-8.73-21.58-17.52-43.15A4,4,0,0,1,164.24,162.35Z"/><path class="cls-1" d="M158.42,165.07l3.64,9c4.63,11.4,9.23,22.8,13.9,34.17.48,1.16.5,1.59-.86,2a69.79,69.79,0,0,1-15.35,3c-1.07.08-1.52-.07-1.52-1.33.05-15.27,0-30.54,0-45.81C158.26,165.9,158.31,165.75,158.42,165.07Z"/><path class="cls-1" d="M152.18,165.34c0,15.7,0,31.09,0,46.47,0,1.18-.31,1.47-1.46,1.39a67.62,67.62,0,0,1-15.88-3.14c-.7-.22-1-.46-.62-1.27Q143,187.43,151.63,166A5.69,5.69,0,0,1,152.18,165.34Z"/><path class="cls-1" d="M161.31,225.62a6.09,6.09,0,1,1-6.21-6.07A6.11,6.11,0,0,1,161.31,225.62Z"/><path class="cls-1" d="M101.1,101A6,6,0,0,1,95,94.86a6.11,6.11,0,0,1,6-6.15,6.21,6.21,0,0,1,6.29,6.05A6.11,6.11,0,0,1,101.1,101Z"/><path class="cls-1" d="M237.94,149.09a6.11,6.11,0,0,1-6.2,6.08,6.15,6.15,0,0,1,.12-12.29A6.13,6.13,0,0,1,237.94,149.09Z"/><path class="cls-1" d="M215.49,203.15a6.12,6.12,0,0,1-6.08,6.21,6.14,6.14,0,0,1-.12-12.28A6.08,6.08,0,0,1,215.49,203.15Z"/><path class="cls-1" d="M72.5,149.09a6.13,6.13,0,0,1,6.08-6.21,6.15,6.15,0,0,1,.12,12.29A6.11,6.11,0,0,1,72.5,149.09Z"/><path class="cls-1" d="M209.39,101a6.06,6.06,0,0,1-6.07-6.19,6.1,6.1,0,0,1,12.2.08A6,6,0,0,1,209.39,101Z"/><path class="cls-1" d="M101.16,197.08a6.14,6.14,0,1,1-6.24,6A6.13,6.13,0,0,1,101.16,197.08Z"/><path class="cls-1" d="M155.26,78.51a6.12,6.12,0,0,1-.08-12.24,6.1,6.1,0,0,1,6.13,6.2A6,6,0,0,1,155.26,78.51Z"/></g></g></g></svg>