<svg xmlns="http://www.w3.org/2000/svg" viewBox="0 0 310.39 310.39"><defs><style>.cls-1{fill:#312783;}.cls-2{fill:#fff;}</style></defs><g id="Слой_2" data-name="Слой 2"><g id="Слой_1-2" data-name="Слой 1"><g id="Дендрологические_парки_2" data-name="Дендрологические парки 2"><circle class="cls-1" cx="155.19" cy="155.19" r="155.19"/><path class="cls-2" d="M105.06,251.1c-4-2.32-4.73-4-3.52-8.61,1.12-4.2,2.17-8.43,3.35-12.61a2.44,2.44,0,0,0-.76-2.77Q84.89,208,65.72,188.75c-3.64-3.64-3.54-6.72.32-10.15a30.34,30.34,0,0,1,41.54,1.11c5.2,5.13,10.32,10.34,15.52,15.45a3.58,3.58,0,0,0,2.22,1.05c11.23.07,22.46,0,33.69,0a9.21,9.21,0,0,0,1-.12V136.27H141c0-1.27,0-2.36,0-3.45.67-16.11,3.4-31.78,10.1-46.58a39.48,39.48,0,0,1,8-12.12c4.72-4.64,8.93-4.64,13.61.06s7.39,10.31,9.73,16.25A119.93,119.93,0,0,1,190,123.6c.38,4.08.62,8.18.94,12.54H171.65v60.12h2.27c14.16,0,28.33-.09,42.49,0,12.92.11,22.34,6.09,28.12,17.63a27,27,0,0,1,2.79,12.28c0,3.68-2.35,6.05-6.07,6.12-1.75,0-3.49,0-5.55,0v3.15c0,2.75-.14,5.5,0,8.24.23,3.43-1,5.9-4.12,7.39h-3a6.22,6.22,0,0,1-4.25-6.7c.08-1.36,0-2.74,0-4.11v-7.88H115.92c-1.14,4.32-2.35,8.61-3.38,13-.63,2.66-1.87,4.7-4.49,5.74Z"/><path class="cls-2" d="M162.76,59.29c-9.83,2.84-15.34,10.18-19.86,18.5a100,100,0,0,0-10.46,31.94c-1.4,8.65-2.18,17.4-3.27,26.44h-1.28q-13.47,0-26.95,0c-4,0-6.34-2.39-6.29-6.43a71.39,71.39,0,0,1,57.63-69C155.73,60,159.26,59.75,162.76,59.29Z"/><path class="cls-2" d="M202.34,136.12c-.74-7.31-1.18-14.41-2.22-21.42-2.19-14.74-6-29-14.19-41.72-3.43-5.31-7.64-9.85-13.71-12.26C171.16,60.3,170,60,169,59.55a65.93,65.93,0,0,1,24.61,5.51c22.53,10.08,36.56,27.23,42,51.28,1,4.52,1.16,9.26,1.44,13.92a5.45,5.45,0,0,1-5.62,5.9c-9.42,0-18.84,0-28.26,0C202.81,136.17,202.51,136.13,202.34,136.12Z"/></g></g></g></svg>