<svg xmlns="http://www.w3.org/2000/svg" viewBox="0 0 310.39 310.39" xmlns:m="https://www.mapbox.com"><defs><style>.cls-1{fill:#fff}</style></defs><g id="Слой_2" data-name="Слой 2"><g id="Слой_1-2" data-name="Слой 1"><path class="cls-1" d="M105.15,49.49c.52.59,1,1.21,1.57,1.77Q191,135.56,275.28,219.81c4.07,4.06,7.73,8.22,8.67,14.12v4.4c-1.19,2.76-1.91,5.88-3.65,8.23-7,9.5-20.29,9.81-28.17,1Q219.72,211.24,187.24,175c-.48-.54-1-1.06-1.5-1.6-3.17,3.19-6.28,6.34-9.49,9.58-.74-.69-1.27-1.15-1.76-1.64-23.24-23.23-46.37-46.57-69.75-69.65-10.22-10.1-14.3-22.18-13.64-36.24.43-9.08,2.94-17.62,6.46-25.92Z"/><path class="cls-1" d="M241.64,49.49c2.14,2.25,4.26,4.51,6.43,6.72a16.05,16.05,0,0,0,1.82,1.45L217.53,90l8.71,8.78,31.92-31.93,8.25,8.27L234.47,107l8.6,8.58,32-32,9,9a7.48,7.48,0,0,0-1.78,1c-13.05,13-26.15,26-39.06,39.11-6.09,6.2-13.21,9.9-21.89,10.52a3,3,0,0,0-1.18.11c-2.9,1.57-4.62,0-6.56-2-7.67-7.86-15.47-15.58-23.27-23.3a2.63,2.63,0,0,1-.76-2.94c.58-2.44.8-5,1.26-7.44a30.62,30.62,0,0,1,8.87-16.37Q219.83,71.18,240,51c.45-.46.84-1,1.25-1.48Z"/><path class="cls-1" d="M141.94,166.1l25.37,25.37c-.28.29-.7.79-1.15,1.24q-27.43,27.47-54.87,54.92c-3.79,3.81-8.23,6.17-13.59,6.11A17.74,17.74,0,0,1,80,239a17.52,17.52,0,0,1,5.23-16.2q28.08-28.23,56.28-56.33A3.21,3.21,0,0,1,141.94,166.1Z"/><path class="cls-1" d="M100.3,49.49c.53.59,1,1.21,1.58,1.77q84.26,84.3,168.56,168.55c4.06,4.06,7.73,8.22,8.67,14.12v4.4c-1.19,2.76-1.91,5.88-3.66,8.23-7,9.5-20.28,9.81-28.16,1Q214.86,211.24,182.4,175c-.49-.54-1-1.06-1.51-1.6l-9.48,9.58c-.75-.69-1.27-1.15-1.77-1.64-23.23-23.23-46.36-46.57-69.74-69.65-10.22-10.1-14.3-22.18-13.64-36.24.43-9.08,2.94-17.62,6.46-25.92Z"/><path class="cls-1" d="M236.8,49.49c2.14,2.25,4.26,4.51,6.43,6.72A16.9,16.9,0,0,0,245,57.66c-11,11-21.76,21.75-32.35,32.32l8.71,8.78,31.91-31.93,8.25,8.27L229.63,107l8.6,8.58,32-32c2.92,2.9,5.68,5.66,9,9a7.74,7.74,0,0,0-1.79,1c-13,13-26.14,26-39.05,39.11-6.1,6.2-13.21,9.9-21.89,10.52a3.08,3.08,0,0,0-1.19.11c-2.9,1.57-4.61,0-6.56-2-7.66-7.86-15.46-15.58-23.26-23.3a2.64,2.64,0,0,1-.77-2.94c.59-2.44.8-5,1.26-7.44a30.7,30.7,0,0,1,8.88-16.37Q215,71.18,235.14,51c.46-.46.84-1,1.26-1.48Z"/><path class="cls-1" d="M137.1,166.1l25.36,25.37c-.27.29-.69.79-1.14,1.24q-27.45,27.47-54.87,54.92c-3.79,3.81-8.23,6.17-13.6,6.11A17.73,17.73,0,0,1,75.13,239a17.52,17.52,0,0,1,5.23-16.2q28.08-28.23,56.28-56.33A3.21,3.21,0,0,1,137.1,166.1Z"/><circle cx="155.19" cy="155.19" r="155.19" style="fill:#ed1e79"/><path class="cls-1" d="M78.51,49.63c.53.59,1,1.21,1.58,1.76q84.25,84.3,168.56,168.55c4.06,4.06,7.73,8.22,8.67,14.13v4.39c-1.19,2.77-1.91,5.88-3.65,8.24-7,9.49-20.29,9.81-28.17,1q-32.43-36.31-64.89-72.58c-.49-.55-1-1.07-1.5-1.61l-9.49,9.58c-.75-.69-1.27-1.14-1.77-1.64-23.23-23.23-46.36-46.57-69.74-69.65-10.22-10.1-14.3-22.18-13.64-36.23.43-9.08,2.94-17.62,6.46-25.92Z"/><path class="cls-1" d="M215,49.63c2.14,2.24,4.26,4.5,6.43,6.72a18.24,18.24,0,0,0,1.81,1.45L190.9,90.11l8.71,8.79L231.52,67l8.25,8.27-31.93,31.94,8.6,8.59,32-32,9,9a8.11,8.11,0,0,0-1.79,1c-13,13-26.14,26-39.05,39.11-6.1,6.21-13.21,9.9-21.89,10.52a3,3,0,0,0-1.18.12c-2.91,1.57-4.62,0-6.57-2-7.66-7.85-15.46-15.58-23.26-23.29a2.64,2.64,0,0,1-.77-2.94c.59-2.45.8-5,1.27-7.45A30.59,30.59,0,0,1,173,91.46q20.2-20.16,40.35-40.36c.46-.45.84-1,1.26-1.47Z"/><path class="cls-1" d="M115.31,166.23l25.36,25.37c-.27.3-.69.79-1.14,1.25q-27.45,27.45-54.87,54.92c-3.79,3.8-8.23,6.16-13.6,6.11a17.75,17.75,0,0,1-17.72-14.77,17.52,17.52,0,0,1,5.23-16.2q28.08-28.23,56.28-56.33A3.21,3.21,0,0,1,115.31,166.23Z"/></g></g><m:metadata><m:parameters><m:parameter m:name="color-1" m:type="color" m:value="#ED1E79"/><m:parameter m:name="color-2" m:type="color" m:value="#FFFFFF"/></m:parameters></m:metadata></svg>