<svg xmlns="http://www.w3.org/2000/svg" viewBox="0 0 310.39 310.39" xmlns:m="https://www.mapbox.com"><defs><style>.cls-2{fill:#fff}</style></defs><g id="Слой_2" data-name="Слой 2"><g id="Слой_1-2" data-name="Слой 1"><rect width="310.39" height="310.39" rx="71.15" style="fill:#8c6239"/><path class="cls-2" d="M144,251h22.46V216l16.69,3.63V197.13l-16.8-3.74v-35H143.92v29.38l-16.75-3.63c0,7.17,0,14,0,20.86,0,1.37.44,1.79,1.71,2.05,5,1,10,2.19,15.15,3.33Z"/><path class="cls-2" d="M166.42,59.43v24H187.1v22.39H166.56V124.7h48.37v22.21H95.46V124.76H143.9V105.89H123.36V83.45H144v-24Z"/><path class="cls-2" d="M144,251V210.39c-5.11-1.14-10.12-2.3-15.15-3.33-1.27-.26-1.73-.68-1.71-2.05.08-6.84,0-13.69,0-20.86l16.75,3.63V158.4h22.42v35l16.8,3.74v22.51L166.45,216V251Z"/></g></g><m:metadata><m:parameters><m:parameter m:name="color-1" m:type="color" m:value="#8C6239"/><m:parameter m:name="color-2" m:type="color" m:value="#FFFFFF"/></m:parameters></m:metadata></svg>