<svg xmlns="http://www.w3.org/2000/svg" viewBox="0 0 310.39 310.39" xmlns:m="https://www.mapbox.com"><defs><style>.cls-1{fill:#fbb03b}.cls-2{fill:#fff}</style></defs><g id="Слой_2" data-name="Слой 2"><g id="Слой_1-2" data-name="Слой 1"><circle class="cls-1" cx="155.19" cy="155.19" r="155.19"/><path class="cls-2" d="M227.61,59.42c3.2,10.44,6.37,20.89,9.61,31.32.39,1.25.31,1.79-1.11,2.17-3.41.92-6.77,2-10.15,3.11a2.13,2.13,0,0,1-2.2-.35c-10.5-8.39-21-16.74-31.8-25.31L199.45,68q13.1-4,26.17-8c.41-.13,1,0,1.24-.61Z"/><path class="cls-2" d="M77.18,141.93c.56,0,1.11-.11,1.66-.11q81.61,0,163.24,0c1.79,0,2.26.4,2.26,2.23q-.09,46.65-.05,93.29c0,6.52-3.24,11.27-8.83,13.06a13.76,13.76,0,0,1-4.23.62H88.93a9.86,9.86,0,0,1-3.5-.45c-2-2-4.63-3.3-6.46-5.51-.28-.34-.85-.56-.9-.92-.3-2.34-2.11-4.28-2.11-6.58q-.12-47,0-94C75.91,142.64,75.74,141.64,77.18,141.93Z"/><path class="cls-2" d="M77.18,141.93c-.66.15-1.14.47-1.09,1.26,0,.49,0,1,0,1.49v92c0,1.1-.2,2.19,1.18,2.82a2.2,2.2,0,0,1,.87,2.33,2.47,2.47,0,0,0,1.31,2.77c1.56,1.08,2.29,3.13,4.49,3.49,1.13.19,1,1.63,1.49,2.44-5.71-1.44-9.39-6.12-9.58-12.25,0-1.43,0-2.86,0-4.3q0-45,0-89.94a18.79,18.79,0,0,0-1.07-5.64c-2.85-9.33-5.66-18.67-8.58-28-.42-1.35-.06-1.67,1.12-2,5.49-1.61,11-3.3,16.41-5a2,2,0,0,1,2.07.17C96.38,112,107,120.4,117.82,129c-3.78,1.16-7.3,2.26-10.84,3.34-9.5,2.91-19,5.79-28.51,8.74C78.05,141.23,77.14,141,77.18,141.93Z"/><path class="cls-2" d="M100,98.44c10.18-3.1,20.21-6.15,30.23-9.24a1.46,1.46,0,0,1,1.53.22l31.7,25.27s0,.11.14.36l-14.31,4.37-15.32,4.7a2.06,2.06,0,0,1-2.2-.28q-15.47-12.37-31-24.67C100.51,99,100.3,98.76,100,98.44Z"/><path class="cls-2" d="M209.87,100.88l-11.74,3.62c-6,1.84-12.12,3.66-18.16,5.54a2.06,2.06,0,0,1-2.21-.29q-15.47-12.34-31-24.64c-.22-.18-.57-.3-.49-.82,10-3.05,20-6.1,30-9.18a1.5,1.5,0,0,1,1.54.28C188.41,83.84,199,92.27,209.87,100.88Z"/><path class="cls-1" d="M140.51,219.05V173.77l39.22,22.64Z"/></g></g><m:metadata><m:parameters><m:parameter m:name="color-1" m:type="color" m:value="#FBB03B"/><m:parameter m:name="color-2" m:type="color" m:value="#FFFFFF"/></m:parameters></m:metadata></svg>