<svg xmlns="http://www.w3.org/2000/svg" viewBox="0 0 310.39 310.39"><defs><style>.cls-1{fill:#fbb03b;}.cls-2{fill:#fff;}</style></defs><g id="Слой_2" data-name="Слой 2"><g id="Слой_1-2" data-name="Слой 1"><circle class="cls-1" cx="155.19" cy="155.19" r="155.19"/><path class="cls-2" d="M49,272.85c-3.18-1.29-4.49-3.88-5-7.08a52.41,52.41,0,0,1,4.67-31c1.32-2.84,2.61-5.7,4.16-8.41,4.27-7.47,5-15.22,3.45-23.67a211,211,0,0,1-3.13-53.28c1.91-26.47,12.11-49.15,31-67.93A116.26,116.26,0,0,1,108,63a18.41,18.41,0,0,0-6.21-4C98,57.43,94.24,55.7,90.14,54.92a5.24,5.24,0,0,1-4.08-4.2,5.42,5.42,0,0,1,2.1-5.9c2.83-2.31,6.32-3.35,9.69-4.53,13-4.54,25.75-3.06,38.38,1.54,10,3.63,19.69,7.94,30.23,9.81,8.5,1.5,17.06,2.8,25.38,5.16,17,4.83,32.44,12.65,45.54,24.63,4.49,4.11,8.1,9,9,15.33a12.65,12.65,0,0,1,.08,3.88c-.45,2.45.54,3.67,2.73,4.7a61.44,61.44,0,0,1,12.08,7.42c2.67,2.11,5.17,4.44,5.64,8.06.91,6.86-3.46,11.7-10.74,11.79-5.55.06-10.92-1.24-16.29-2.48-4.39-1-8.8-1.95-13.18-3-6.87-1.68-13.42.34-19.88,2-12.75,3.35-25.61,3-38.53,1.84-2.19-.2-3.21.09-3.87,2.38a46.84,46.84,0,0,1-17.83,25.41,180,180,0,0,1-17.86,12,9.62,9.62,0,0,1-4.48,1.63,5.89,5.89,0,0,1-5.26-8.89,71.16,71.16,0,0,0,5-10.29c2.23-6.36,1.32-12.86,1.25-19.55a77.93,77.93,0,0,0-15.74,6.34c-9.88,5.18-15.87,13.63-20.07,23.6-4,9.5-6.82,19.3-7.38,29.65a32.43,32.43,0,0,0,1.15,10,3,3,0,0,0,3.29,2.47c5.74,0,11.5.09,17.06,1.8a42.79,42.79,0,0,1,17.75,11,5.93,5.93,0,0,1-3.7,10.09,53.81,53.81,0,0,0-23.37,6.66,15.53,15.53,0,0,1-7.29,1.82,2.74,2.74,0,0,0-2.8,1.79c-2.31,4.83-6.27,8-10.89,10.46a12.49,12.49,0,0,1-1.64.81c-8.26,2.81-12.43,9.27-14.94,17.06a8.13,8.13,0,0,1-4.85,5.6Z"/></g></g></svg>