<svg xmlns="http://www.w3.org/2000/svg" viewBox="0 0 310.39 310.39"><defs><style>.cls-1{fill:#8cc63f;}.cls-2{fill:#fff;}</style></defs><g id="Слой_2" data-name="Слой 2"><g id="Слой_1-2" data-name="Слой 1"><rect class="cls-1" width="310.39" height="310.39" rx="71.15"/><path class="cls-2" d="M257.34,178.35A29.39,29.39,0,0,1,239,172.69c-5.58-3.95-10.92-8.36-17.61-10.39-14.3-4.33-27.95-3.3-40.6,5.24-2.65,1.78-5.24,3.65-7.86,5.47a31.85,31.85,0,0,1-35.64,0c-4.49-3.08-8.81-6.62-13.72-8.81-15.45-6.9-30.6-6.07-45,3.31-3.51,2.28-6.85,4.83-10.41,7a27,27,0,0,1-15.16,3.77V150.71c2.87-.32,5.77-.53,8.63-1A39.43,39.43,0,0,0,78.15,143c2.74-1.88,5.44-3.82,8.18-5.71a31.86,31.86,0,0,1,35.47,0c4.5,3.07,8.82,6.61,13.72,8.81,15.44,6.94,30.59,6.12,45-3.23,2.72-1.78,5.34-3.73,8-5.58a31.88,31.88,0,0,1,35.48,0,167.67,167.67,0,0,0,14.25,9.11c5.88,3.19,12.4,4.22,19.09,4Z"/><path class="cls-2" d="M257.34,136.43a28,28,0,0,1-17.81-5.2c-4.51-3-8.84-6.59-13.74-8.8-15.38-6.92-30.47-6.07-44.81,3.18-3.79,2.45-7.26,5.52-11.28,7.49-10.95,5.37-21.81,4.9-32.2-1.78-4.63-3-8.95-6.65-13.92-8.89-15.37-6.93-30.45-6.06-44.8,3.18-4.19,2.69-8.21,5.66-12.52,8.14-4,2.29-8.49,2.89-13.2,2.74V111.12c1.54-.11,3.11-.17,4.67-.35a29.88,29.88,0,0,0,13.37-5.33c4.45-3,8.73-6.5,13.59-8.66,15.25-6.77,30.23-6,44.46,3.19,3.35,2.16,6.41,4.8,9.89,6.73,11.37,6.3,22.7,6,33.76-.94,4.71-3,9.06-6.73,14.09-9,15.25-6.8,30.23-6,44.46,3.18,3.58,2.3,7,4.92,10.56,7.16a25.6,25.6,0,0,0,15.43,3.75Z"/><path class="cls-2" d="M257.34,217.87a43.46,43.46,0,0,1-26.68-8.49c-3.22-2.35-6.4-4.9-10-6.61-11-5.26-21.83-4.84-32.2,1.91-4.62,3-8.95,6.65-13.92,8.88-15.39,6.89-30.48,6-44.8-3.31-3.68-2.39-7-5.36-10.94-7.29-11.07-5.52-22-5.09-32.55,1.72-4.85,3.14-9.59,6.48-14.62,9.28s-13.56,4.27-18.62,3.74V192.54c2.71-.3,5.46-.55,8.2-.92a39.35,39.35,0,0,0,16.86-6.78c2.58-1.75,5.13-3.56,7.7-5.35a31.66,31.66,0,0,1,36.44,0c5.56,3.85,10.82,8.29,17.41,10.35,14.35,4.47,28.07,3.45,40.82-5.08,3.7-2.48,7.16-5.45,11.11-7.4,10.94-5.4,21.82-5,32.2,1.69,3.24,2.09,6.3,4.47,9.53,6.58a42.4,42.4,0,0,0,24,6.72Z"/></g></g></svg>