<svg width="24" height="24" viewBox="0 0 24 24" fill="none" xmlns="http://www.w3.org/2000/svg">
<g clip-path="url(#clip0_2199_2)">
<path d="M18.4985 0H5.50147C2.46309 0 0 2.46309 0 5.50147V18.4985C0 21.5369 2.46309 24 5.50147 24H18.4985C21.5369 24 24 21.5369 24 18.4985V5.50147C24 2.46309 21.5369 0 18.4985 0Z" fill="#8CC63F"/>
<path d="M19.8976 13.791C19.3893 13.808 18.89 13.6538 18.4796 13.3534C18.0481 13.048 17.6352 12.707 17.1179 12.55C16.0122 12.2152 14.9568 12.2948 13.9786 12.9552C13.7737 13.0928 13.5735 13.2374 13.3709 13.3781C12.9639 13.6529 12.4841 13.7997 11.993 13.7997C11.502 13.7997 11.0221 13.6529 10.6151 13.3781C10.268 13.14 9.93393 12.8662 9.55427 12.6969C8.35965 12.1634 7.18822 12.2276 6.07478 12.9528C5.80338 13.1291 5.54513 13.3263 5.26986 13.4941C4.91639 13.7047 4.50858 13.8061 4.09766 13.7856V11.6538C4.31957 11.6291 4.5438 11.6129 4.76495 11.5765C5.22476 11.5034 5.66172 11.3259 6.04231 11.0577C6.25417 10.9123 6.46294 10.7623 6.6748 10.6162C7.08047 10.3443 7.55778 10.1992 8.04611 10.1992C8.53443 10.1992 9.01174 10.3443 9.41742 10.6162C9.76536 10.8536 10.0994 11.1273 10.4783 11.2974C11.6721 11.834 12.8436 11.7706 13.9578 11.0476C14.1681 10.91 14.3707 10.7592 14.5763 10.6162C14.9822 10.3444 15.4596 10.1993 15.948 10.1993C16.4365 10.1993 16.9139 10.3444 17.3197 10.6162C17.6749 10.8694 18.0427 11.1045 18.4216 11.3206C18.8762 11.5672 19.3804 11.6469 19.8976 11.6299V13.791Z" fill="white"/>
<path d="M19.8989 10.5497C19.4075 10.5761 18.9218 10.4343 18.5218 10.1477C18.173 9.9157 17.8382 9.63812 17.4594 9.46723C16.2701 8.93217 15.1034 8.99789 13.9946 9.71312C13.7015 9.90256 13.4332 10.1399 13.1224 10.2923C12.2757 10.7075 11.436 10.6711 10.6326 10.1546C10.2746 9.92266 9.94056 9.64044 9.55627 9.46723C8.36783 8.93139 7.20181 8.99866 6.09224 9.71312C5.76826 9.92111 5.45743 10.1508 5.12417 10.3425C4.81488 10.5196 4.4677 10.566 4.10352 10.5544V8.59272C4.22259 8.58422 4.34399 8.57958 4.46461 8.56566C4.83764 8.51457 5.19254 8.37309 5.49841 8.15353C5.84249 7.92157 6.17343 7.65094 6.54921 7.48392C7.72837 6.96045 8.88666 7.01999 9.98695 7.73058C10.246 7.8976 10.4826 8.10173 10.7517 8.25096C11.6308 8.73809 12.5069 8.71489 13.3621 8.17827C13.7262 7.94631 14.0626 7.6579 14.4515 7.48238C15.6307 6.95659 16.789 7.01844 17.8893 7.72826C18.1661 7.9061 18.4305 8.10868 18.7058 8.28189C19.0627 8.50255 19.4805 8.60409 19.8989 8.57184V10.5497Z" fill="white"/>
<path d="M19.8988 16.8459C19.1576 16.8607 18.4323 16.6299 17.8359 16.1895C17.5869 16.0078 17.341 15.8106 17.0627 15.6784C16.2121 15.2717 15.3747 15.3041 14.5729 15.8261C14.2157 16.058 13.8809 16.3403 13.4966 16.5127C12.3066 17.0454 11.1398 16.9766 10.0325 16.2567C9.74799 16.0719 9.49128 15.8423 9.18663 15.6931C8.33067 15.2663 7.48554 15.2995 6.6698 15.8261C6.29478 16.0689 5.92828 16.3271 5.53935 16.5436C5.15042 16.7601 4.49086 16.8738 4.09961 16.8328V14.8874C4.30915 14.8642 4.52179 14.8448 4.73365 14.8162C5.20315 14.7456 5.64961 14.5661 6.0373 14.292C6.23679 14.1567 6.43396 14.0167 6.63268 13.8783C7.04513 13.5881 7.53715 13.4323 8.04149 13.4323C8.54582 13.4323 9.03785 13.5881 9.4503 13.8783C9.88021 14.176 10.2869 14.5193 10.7965 14.6786C11.906 15.0242 12.9669 14.9454 13.9528 14.2858C14.2389 14.094 14.5064 13.8644 14.8118 13.7136C15.6577 13.2961 16.499 13.327 17.3016 13.8443C17.5521 14.0059 17.7887 14.1899 18.0385 14.3531C18.591 14.7083 19.2375 14.8893 19.8942 14.8727L19.8988 16.8459Z" fill="white"/>
</g>
<defs>
<clipPath id="clip0_2199_2">
<rect width="24" height="24" fill="white"/>
</clipPath>
</defs>
</svg>
