<svg xmlns="http://www.w3.org/2000/svg" viewBox="0 0 310.39 310.39" xmlns:m="https://www.mapbox.com"><defs><style>.cls-2{fill:#fff}</style></defs><g id="Слой_2" data-name="Слой 2"><g id="Слой_1-2" data-name="Слой 1"><circle cx="155.19" cy="155.19" r="155.19" style="fill:#ed1e79"/><path class="cls-2" d="M78.36,190.16H232c0,4.46,0,8.88,0,13.3a7.71,7.71,0,0,0,4.9,7.48c5.1,2,10.25-1.78,10.28-7.59.06-12.11,0-24.21,0-36.31a7.09,7.09,0,0,0-.16-1.15H78.36v-58c0-.62,0-1.25,0-1.87a7.7,7.7,0,0,0-6.21-7.24,7.44,7.44,0,0,0-8.37,4.76,11.05,11.05,0,0,0-.59,3.66q0,48,0,96a13.41,13.41,0,0,0,.31,3,7.43,7.43,0,0,0,6.69,5.6A7.53,7.53,0,0,0,78.35,204C78.41,199.5,78.36,195,78.36,190.16ZM133,159.57h114.2c0-3.41.16-6.72,0-10-.24-3.83-.3-7.78-1.31-11.44-3.7-13.31-15.34-21.65-29.89-21.69q-33.4-.07-66.82,0a20.58,20.58,0,0,0-4.64.45c-7.13,1.69-11.52,7.43-11.58,15.19-.07,8.61,0,17.22,0,25.83C132.87,158.47,132.94,159,133,159.57Zm-8.42-21.42a18.37,18.37,0,1,0-18.3,18.26A18.35,18.35,0,0,0,124.55,138.15Z"/><path class="cls-2" d="M78.36,190.16c0,4.86,0,9.34,0,13.82a7.53,7.53,0,0,1-8.18,7.76,7.43,7.43,0,0,1-6.69-5.6,13.41,13.41,0,0,1-.31-3q0-48,0-96a11.05,11.05,0,0,1,.59-3.66,7.44,7.44,0,0,1,8.37-4.76A7.7,7.7,0,0,1,78.35,106c0,.62,0,1.25,0,1.87v58H247a7.09,7.09,0,0,1,.16,1.15c0,12.1.05,24.2,0,36.31,0,5.81-5.18,9.55-10.28,7.59a7.71,7.71,0,0,1-4.9-7.48c0-4.42,0-8.84,0-13.3Z"/><path class="cls-2" d="M133,159.57c0-.56-.1-1.1-.1-1.65,0-8.61-.06-17.22,0-25.83.06-7.76,4.45-13.5,11.58-15.19a20.58,20.58,0,0,1,4.64-.45q33.41,0,66.82,0c14.55,0,26.19,8.38,29.89,21.69,1,3.66,1.07,7.61,1.31,11.44.21,3.28,0,6.59,0,10Z"/><path class="cls-2" d="M124.55,138.15A18.37,18.37,0,0,1,87.82,138a18.37,18.37,0,1,1,36.73.13Z"/></g></g><m:metadata><m:parameters><m:parameter m:name="color-1" m:type="color" m:value="#ED1E79"/><m:parameter m:name="color-2" m:type="color" m:value="#FFFFFF"/></m:parameters></m:metadata></svg>