<svg xmlns="http://www.w3.org/2000/svg" viewBox="0 0 24 24"><g><circle cx="12" cy="12" r="12" fill="#f13746" opacity="1" data-original="#379df1" class=""></circle><path fill="#ffffff" d="m16 17.8 1.4 1.2v.4H6.6V19L8 17.8H6.6c-.8 0-1.5-.7-1.5-1.5V7.8c0-1.7 1.4-3.1 3.1-3.1h7.7c1.7 0 3.1 1.4 3.1 3.1v8.5c0 .8-.7 1.5-1.5 1.5zm-4.8-6.2V6.2H8.1c-.8 0-1.5.7-1.5 1.5v3.9zm1.6 0h4.6V7.8c0-.8-.7-1.5-1.5-1.5h-3.1zm-4.3 4.6c.6 0 1.2-.5 1.2-1.2 0-.6-.5-1.2-1.2-1.2-.6 0-1.2.5-1.2 1.2.1.7.6 1.2 1.2 1.2zm7 0c.6 0 1.2-.5 1.2-1.2 0-.6-.5-1.2-1.2-1.2-.6 0-1.2.5-1.2 1.2s.6 1.2 1.2 1.2z" opacity="1" data-original="#ffffff" class=""></path></g></svg>