<svg xmlns="http://www.w3.org/2000/svg" viewBox="0 0 310.39 310.39"><defs><style>.cls-1{fill:#fbb03b;}.cls-2{fill:#fff;}</style></defs><g id="Слой_2" data-name="Слой 2"><g id="Слой_1-2" data-name="Слой 1"><circle class="cls-1" cx="155.19" cy="155.19" r="155.19"/><path class="cls-2" d="M59.41,239.74H143c4.51,0,7.4-3.9,5.72-7.75a5.64,5.64,0,0,0-5.67-3.47q-13.94,0-27.87,0c-9.51,0-16.38-6-17.42-15.49a15.84,15.84,0,0,1,4.61-13c1.49-1.59,3-3.13,4.62-4.63a1.67,1.67,0,0,0,.52-2.09c-2.27-6.46-1.21-12.3,3.22-17.61q26-31.17,51.85-62.42l.63-.68c5.68,17,17,28.35,34.12,34.05l-13.12,11.07q-24.87,21-49.74,42c-5.22,4.41-11,5.47-17.42,3.1a1.65,1.65,0,0,0-2.08.48c-1.4,1.5-2.9,2.92-4.34,4.39a5.63,5.63,0,0,0,4.07,9.61c9.66,0,19.33-.06,29,0a16.8,16.8,0,0,1,2.92,33.33c-.29.05-.63,0-.8.32q-42.48,0-85,0c-1.32,0-1.55-.31-1.51-1.55C59.48,246.21,59.41,243,59.41,239.74Z"/><path class="cls-2" d="M235,129.61a37.2,37.2,0,0,1-18.4,7.56c-20.44,2.35-38.71-10.48-43.24-30.44-2.51-11.11-.1-21.35,6.26-30.72.54-.8.88-1.12,1.76-.24q26.59,26.67,53.25,53.3A3.77,3.77,0,0,1,235,129.61Z"/><path class="cls-2" d="M242.8,121.76a12.32,12.32,0,0,0-1.06-1.41q-26-26.07-52.13-52.08c-1.22-1.22-1-1.66.3-2.48,22.51-14.33,55.16-4.18,60.52,26.15,1.85,10.47-.72,20.14-6.8,28.85C243.45,121,243.23,121.26,242.8,121.76Z"/></g></g></svg>