<svg xmlns="http://www.w3.org/2000/svg" viewBox="0 0 310.39 310.39" xmlns:m="https://www.mapbox.com"><defs><style>.cls-2{fill:#fff}</style></defs><g id="Слой_2" data-name="Слой 2"><g id="Слой_1-2" data-name="Слой 1"><rect width="310.39" height="310.39" rx="71.15" style="fill:#8c6239"/><path class="cls-2" d="M157.8,59.38a41.52,41.52,0,0,1,4.68,1.73c7.38,3.74,11,10.19,12.06,18,1.24,8.85-.88,16.83-7.45,23.3a2.21,2.21,0,0,0-.63,1.42c-.06,2.93,0,5.85,0,9h2.08c4.86,0,9.73,0,14.59,0,11.38.09,19.11,9.7,16.7,20.85-2.6,12-5.31,24.08-8,36.12-.75,3.35-2.73,5-6.23,5-2.54.05-5.1,0-7.87,0V186.1h-45V174.93h-6.82c-4.87,0-6.45-1.23-7.51-6-2.62-11.73-5.27-23.45-7.81-35.2-2.41-11.14,5.33-20.76,16.7-20.84,5.48,0,11,0,16.67,0,0-3.22,0-6.32,0-9.41,0-.45-.51-1-.88-1.32-9.49-9.36-10.09-26.31-1.34-36.36a21.79,21.79,0,0,1,10.88-6.44Z"/><path class="cls-2" d="M202,214.29H108.35c1.24-4.5,2.35-8.9,3.69-13.23.72-2.29,2.59-3.42,5-3.58.5,0,1,0,1.5,0h73.32c4.31,0,6,1.26,7.08,5.38C199.94,206.62,200.94,210.4,202,214.29Z"/><path class="cls-2" d="M132.58,225.75V250.9c-.59,0-1.13.1-1.67.1H105.29c-5,0-7.42-3.3-6-8,1.64-5.29,3.32-10.56,5-15.85.27-.85.45-1.55,1.67-1.54,8.6.06,17.2,0,25.8.05A6.23,6.23,0,0,1,132.58,225.75Z"/><path class="cls-2" d="M177.81,225.6h6.64c6.54,0,13.08,0,19.62,0a1.71,1.71,0,0,1,2,1.41c1.64,5.41,3.39,10.8,5.06,16.21,1.35,4.39-1.15,7.79-5.73,7.8-8.72,0-17.45,0-26.17,0-.43,0-.86,0-1.4-.08Z"/><path class="cls-2" d="M144,250.88V225.69h22.35v25.19Z"/></g></g><m:metadata><m:parameters><m:parameter m:name="color-1" m:type="color" m:value="#8C6239"/><m:parameter m:name="color-2" m:type="color" m:value="#FFFFFF"/></m:parameters></m:metadata></svg>