<svg xmlns="http://www.w3.org/2000/svg" viewBox="0 0 310.39 310.39" xmlns:m="https://www.mapbox.com"><defs><style>.cls-2{fill:#fff}</style></defs><g id="Слой_2" data-name="Слой 2"><g id="Слой_1-2" data-name="Слой 1"><rect width="310.39" height="310.39" rx="71.15" style="fill:#8c6239"/><path class="cls-2" d="M232.22,155.37c-2-11.67-3.89-22.84-5.86-34a3.78,3.78,0,0,1,1.19-3.85c7.61-7.35,15.13-14.78,22.71-22.15a9.33,9.33,0,0,1,1.89-1.12l-.53-.7-4.9-.72c-9.66-1.39-19.31-2.79-29-4.12A3.37,3.37,0,0,1,215,86.61c-4.73-9.21-9.54-18.37-14.33-27.55-.33-.62-.69-1.23-1.17-2.09-.48.86-.85,1.46-1.16,2.08-4.74,9.28-9.49,18.55-14.17,27.86a3,3,0,0,1-2.52,1.85q-10,1.41-20.09,2.9c-4.62.67-9.24,1.38-13.85,2.07l-.41.65a11.42,11.42,0,0,1,1.81,1.21c7.65,7.39,15.26,14.83,22.93,22.21a3.14,3.14,0,0,1,1.12,3.11c-1.43,8.24-2.8,16.48-4.19,24.72-.52,3.12-1,6.24-1.61,9.77,1.09-.54,1.79-.87,2.48-1.23,9.27-4.9,18.56-9.77,27.8-14.73a3.41,3.41,0,0,1,3.65-.06c7.39,3.91,14.84,7.71,22.27,11.54Z"/><path class="cls-2" d="M136.72,53.32c-1.93,2.51-3.83,5-5.8,7.53-5.8,7.35-12.12,14.34-17.34,22.08-9.63,14.29-13.31,30.34-12.14,47.53,1.44,21,9.88,39,24.55,53.9a81.3,81.3,0,0,0,47.63,24.17c21.27,3,40.82-1.74,58.23-14.33,6.88-5,13.19-10.74,19.77-16.14a46.43,46.43,0,0,1,5.54-4.05c-.39.92-.79,1.85-1.17,2.77-4.65,11.16-9.44,22.24-15.94,32.49-10.16,16-22.92,29.26-40,37.94A94.35,94.35,0,0,1,164.4,257c-16.31,1.32-32.13-.71-47.17-7.15-32.48-13.9-53-38.12-61.51-72.41-1.11-4.49-1.42-9.17-2.11-13.76-.09-.58-.25-1.15-.38-1.73V147.56a16.17,16.17,0,0,0,.39-1.91,92.83,92.83,0,0,1,9.79-35.2c8.71-17,22-29.8,37.94-40C112.49,63.41,124.63,58.43,136.72,53.32Z"/></g></g><m:metadata><m:parameters><m:parameter m:name="color-1" m:type="color" m:value="#8C6239"/><m:parameter m:name="color-2" m:type="color" m:value="#FFFFFF"/></m:parameters></m:metadata></svg>