<svg xmlns="http://www.w3.org/2000/svg" viewBox="0 0 310.39 310.39" xmlns:m="https://www.mapbox.com"><defs><style>.cls-2{fill:#fff}</style></defs><g id="Слой_2" data-name="Слой 2"><g id="Слой_1-2" data-name="Слой 1"><rect width="310.39" height="310.39" rx="71.15" style="fill:#8c6239"/><path class="cls-2" d="M98.34,212.11v-41.9a3.16,3.16,0,0,1,2.46-.6q28.92,0,57.83,0a3.87,3.87,0,0,1,2.51.52,3.79,3.79,0,0,1,.58,2.68q0,18.31,0,36.63a4.14,4.14,0,0,1-.54,2.7,3.88,3.88,0,0,1-2.67.58q-28.77,0-57.53,0C100.08,212.71,99.1,212.85,98.34,212.11Z"/><path class="cls-2" d="M98.32,157.83a9.9,9.9,0,0,1-5.46-5.52,9,9,0,0,1,5.77-11.62c.6-.18,1.2-.32,1.8-.48a6.85,6.85,0,0,1,2.72-.55h53.78c.5,0,1,.07,1.49.07a5.08,5.08,0,0,1,1.35.14c3.88,1.06,6.54,3.39,7.59,7.37a9.22,9.22,0,0,1-3.92,9.71,18.47,18.47,0,0,1-2.88,1.7,10.33,10.33,0,0,1-2.6.18q-27.81,0-55.62,0C100.94,158.83,99.44,159.06,98.32,157.83Z"/><path class="cls-2" d="M160,242q-10.83,0-21.66.06-17.75,0-35.49,0c-5.49,0-9.08-2.34-10.18-6.64-1.15-4.53.72-8.15,5.63-10.91,1.06-1.18,2.48-1,3.83-1q18.19,0,36.37,0h19.21a11.87,11.87,0,0,1,2.79.17,12.32,12.32,0,0,1,5.8,4.77C169.66,233.88,166.08,241.46,160,242Z"/><path class="cls-2" d="M98.32,157.83a17.41,17.41,0,0,0,5,.41h55.41c.8,0,1.61,0,2.42,0l.23.25a54.43,54.43,0,0,1,.15,11.27,1.39,1.39,0,0,1-.39.57c-3.36,0-6.72-.07-10.08-.07q-26.36,0-52.71,0Q98.32,164,98.32,157.83Z"/><path class="cls-2" d="M161.14,224.13l-47,0h-11a16.49,16.49,0,0,0-4.8.41q0-6.19,0-12.38H158.9c.74,0,1.49,0,2.23-.07l.24.27a42.22,42.22,0,0,1,0,11.56Z"/><path class="cls-2" d="M158.87,140.23l-58.44,0L117.69,125l4.58-4.07a2.5,2.5,0,0,1,2-.65c4.26,0,8.53-.08,12.79,0,2,.13,4.12-.55,6.06.54l.31.41c-1.43.88-3,.17-4.62.53,3.8,3.38,7.6,6.67,11.38,10q3.58,3.14,7.16,6.28C158.06,138.59,159,139.1,158.87,140.23Z"/><path class="cls-2" d="M137.17,120.81l-14.9.08c0-5.42-.06-10.84,0-16.26a2.89,2.89,0,0,1,3.21-3.25c3.3,0,6.61,0,9.91,0a2.74,2.74,0,0,1,2.3,2.78,27.81,27.81,0,0,1-.11,5.77,1.25,1.25,0,0,1-.33.51,3.3,3.3,0,0,1-1.8.36c-2.57.12-3.62.87-3.59,2.55s1.05,2.34,3.68,2.47a3.43,3.43,0,0,1,1.64.3,1.24,1.24,0,0,1,.38.5C137.74,118.07,138.05,119.49,137.17,120.81Z"/><path class="cls-2" d="M161.13,212V170.15a7.28,7.28,0,0,1,6,.07c0,9.66.06,19.32.07,29,0,4.3-.05,8.6-.07,12.91a7.32,7.32,0,0,1-6,.06Z"/><path class="cls-2" d="M203.76,89.79c-2.51-2.49-5-5-7.53-7.46-1.6-1.63-1.59-3.21.05-4.89,2.46-2.53,5-5,7.5-7.49,2.61,2.41,5.09,4.94,7.53,7.51,1.53,1.61,1.52,3.2,0,4.81C208.85,84.84,206.35,87.36,203.76,89.79Z"/><path class="cls-2" d="M203.79,123.72c-2.45-2.45-4.91-4.89-7.35-7.35-1.82-1.84-1.86-3.32-.08-5.12,2.44-2.46,4.91-4.89,7.37-7.33a39.81,39.81,0,0,1,8,8,2.94,2.94,0,0,1-.25,4.25C209,118.74,206.5,121.35,203.79,123.72Z"/><path class="cls-2" d="M186.92,140.69c-2.55-2.53-5.12-5-7.65-7.6-1.47-1.49-1.54-3.19-.15-4.6,2.43-2.48,4.93-4.88,7.41-7.31.84-.24,1.25.43,1.71.88,2,1.92,3.91,3.85,5.82,5.82s1.93,3.74,0,5.7C191.71,136,189.38,138.39,186.92,140.69Z"/><path class="cls-2" d="M186.48,106.26c-2.47-2.42-5-4.81-7.41-7.29-1.36-1.39-1.29-3,.15-4.43,2.54-2.61,5.14-5.17,7.72-7.75,2.52,2.31,4.94,4.74,7.26,7.25,1.82,2,1.7,3.61-.19,5.56s-3.86,3.9-5.82,5.81C187.73,105.86,187.33,106.55,186.48,106.26Z"/><path class="cls-2" d="M203.76,157.51c-2.51-2.48-5-4.95-7.52-7.47-1.62-1.65-1.58-3.18.07-4.86,2.47-2.52,5-5,7.47-7.5,2.62,2.4,5.1,4.94,7.54,7.51,1.53,1.61,1.51,3.19,0,4.81C208.84,152.56,206.34,155.09,203.76,157.51Z"/><path class="cls-2" d="M169.72,123.45c-2.52-2.49-5.08-5-7.54-7.5a2.74,2.74,0,0,1,0-4.29c2.43-2.49,4.95-4.9,7.43-7.35.86-.34,1.26.36,1.71.8,2,2,4,3.92,6,5.94a3.46,3.46,0,0,1,0,5.27c-2.07,2.16-4.2,4.25-6.32,6.35A2.16,2.16,0,0,1,169.72,123.45Z"/><path class="cls-2" d="M169.72,123.45q3.59-3.67,7.16-7.34c1.58-1.63,1.61-3.22-.06-4.82-2.41-2.32-4.55-4.93-7.24-7,1.76-2.46,3.62-2.71,5.67-.69q3.85,3.78,7.64,7.64c1.71,1.74,1.74,3.28,0,5-2.47,2.54-5,5-7.5,7.52C173.25,125.93,171.72,125.83,169.72,123.45Z"/><path class="cls-2" d="M186.48,106.26a95.09,95.09,0,0,0,7.86-7.69c1.22-1.24.91-2.85-.63-4.44-1.86-1.92-3.78-3.79-5.67-5.69-.47-.48-1.1-.86-1.1-1.65,1.9-2,3.34-2,5.24-.13q3.8,3.74,7.53,7.53c1.88,1.91,1.88,3.37,0,5.3-2.4,2.44-4.83,4.86-7.26,7.27S188.5,108.91,186.48,106.26Z"/><path class="cls-2" d="M203.76,89.79c0-.79.63-1.18,1.1-1.66,2-2,4-3.94,5.92-5.94,1.66-1.69,1.67-3,0-4.65-2-2-4-4-5.92-5.94-.47-.47-1.1-.86-1.1-1.65,1.95-2.08,3.36-2.14,5.34-.19q3.85,3.8,7.65,7.65c1.72,1.75,1.73,3.25,0,5q-3.78,3.87-7.65,7.64C207.19,92,205.62,91.83,203.76,89.79Z"/><path class="cls-2" d="M203.76,157.51c0-.78.62-1.18,1.09-1.65,1.93-1.94,3.87-3.86,5.79-5.81s1.85-3.08,0-4.92-3.87-3.86-5.79-5.8c-.47-.48-1.11-.85-1.11-1.65,2-2.06,3.37-2.13,5.36-.17q3.78,3.74,7.51,7.51c1.88,1.92,1.88,3.36,0,5.29q-3.72,3.8-7.51,7.51C207.23,159.68,205.61,159.56,203.76,157.51Z"/><path class="cls-2" d="M203.79,123.72c.58-1.6,2.07-2.41,3.13-3.59s2.35-2.37,3.53-3.56c2.06-2.07,2.05-3.54,0-5.72-2.21-2.34-4.69-4.41-6.71-6.93,1.92-2.12,3.48-2.2,5.5-.22q3.72,3.67,7.39,7.39c1.91,1.94,1.93,3.38,0,5.29q-3.73,3.8-7.52,7.52C207.16,125.86,205.82,125.8,203.79,123.72Z"/><path class="cls-2" d="M186.92,140.69c0-.79.61-1.19,1.08-1.66,1.92-1.93,3.86-3.85,5.78-5.79,1.73-1.75,1.78-3.25.05-4.94-2.43-2.38-4.67-5-7.3-7.12,2-2.54,3.58-2.67,5.82-.46q3.65,3.6,7.26,7.25c2,2,2,3.42,0,5.4-2.5,2.52-5,5-7.53,7.52C190.2,142.77,188.81,142.7,186.92,140.69Z"/><path class="cls-2" d="M158.87,140.23c-2.69-3.09-6-5.49-9-8.21-3.9-3.49-7.84-6.92-11.61-10.8h5.26l21.74,19c-1.7,1.26-3.45.25-5.18.11Z"/><path class="cls-2" d="M160,140.34l5.18-.11a9.08,9.08,0,0,1,5.67,15,14,14,0,0,1-3.77,2.64c-1.92,1.45-4,1.12-6,.4l0-.09c0-.55.41-.72.8-.92,3.62-1.87,5.54-4.86,5.11-8.9s-2.76-6.52-6.55-7.74A1.87,1.87,0,0,1,160,140.34Z"/><path class="cls-2" d="M160,242c2.92-1.12,5.44-2.68,6.51-5.86a8.87,8.87,0,0,0-3.57-10.6c-.62-.43-1.61-.42-1.82-1.39l0-.09c2.06-.72,4.09-1,6,.4,3.85,1.85,6.13,4.71,6,9.2a9,9,0,0,1-8.42,8.39C163.13,242.07,161.57,242,160,242Z"/><path class="cls-2" d="M161.11,158.28c2-.15,4,.19,6-.4q0,6.17,0,12.34l-6-.07C161.11,166.19,161.11,162.24,161.11,158.28Z"/><path class="cls-2" d="M167.12,224.44c-2-.59-4-.24-6-.4,0-4,0-7.91,0-11.87l6-.06Q167.1,218.27,167.12,224.44Z"/><path class="cls-2" d="M137.16,110.3c0-1.66-.07-3.33,0-5a3.9,3.9,0,0,0-1.85-3.9c1.55,0,3.09-.06,4.64,0,2.09,0,3.14,1.11,3.17,3.24,0,1.92,0,3.84,0,5.75A6.82,6.82,0,0,1,137.16,110.3Z"/><path class="cls-2" d="M137.16,110.3l6,.07v5.93a7.1,7.1,0,0,1-6,.08l0-.09a6.65,6.65,0,0,1,0-5.9Z"/><path class="cls-2" d="M137.16,116.38l6-.08,0,4.51h-6C137.17,119.33,137.16,117.86,137.16,116.38Z"/><path class="cls-2" d="M137.2,110.39v5.9c-1,0-2.1.09-3.14,0a3,3,0,0,1,0-5.94C135.1,110.3,136.15,110.38,137.2,110.39Z"/></g></g><m:metadata><m:parameters><m:parameter m:name="color-1" m:type="color" m:value="#8C6239"/><m:parameter m:name="color-2" m:type="color" m:value="#FFFFFF"/></m:parameters></m:metadata></svg>