<svg xmlns="http://www.w3.org/2000/svg" viewBox="0 0 310.39 310.39" xmlns:m="https://www.mapbox.com"><defs><style>.cls-2{fill:#fff}</style></defs><g id="Слой_2" data-name="Слой 2"><g id="Слой_1-2" data-name="Слой 1"><rect width="310.39" height="310.39" rx="71.15" style="fill:#8c6239"/><path class="cls-2" d="M59,257.23c0-4.79,0-9.58,0-14.36,0-1.34.39-1.62,1.66-1.62q94.54,0,189.08,0c1.27,0,1.68.28,1.66,1.62-.09,4.78,0,9.57,0,14.36Z"/><path class="cls-2" d="M82.13,138.36l-14.7-.12c-.48-2.74-.17-5.51-.19-8.27a31.3,31.3,0,0,1,.17-6.49,6,6,0,0,1,2-.12H241a8.83,8.83,0,0,1,2,.08c.53,1.82.23,3.68.21,5.51,0,3.1.31,6.2-.18,9.29l-14.7.11c-.49.66-.24,1.42-.24,2.12q0,29.39,0,58.75a4.48,4.48,0,0,1-.18,2.15l0,0a21.81,21.81,0,0,1-4.35.14q-11.92,0-23.85,0a6.09,6.09,0,0,1-2.17-.13,4.8,4.8,0,0,1-.17-2.16q0-29.4,0-58.79c0-.71.25-1.47-.24-2.13H170.81c-.49.65-.24,1.41-.24,2.12q0,29.35,0,58.73a6.39,6.39,0,0,1-.13,2.18,2.43,2.43,0,0,1-1.36.17H141.2a2.63,2.63,0,0,1-1.18-.13,4.66,4.66,0,0,1-.17-2.16q0-29.38,0-58.79c0-.71.24-1.46-.24-2.12H113.35c-.49.66-.24,1.42-.24,2.12q0,29.37,0,58.75a6.34,6.34,0,0,1-.13,2.17,1.56,1.56,0,0,1-.77.18c-9.69,0-19.38,0-29.07,0a1.89,1.89,0,0,1-.58-.14l0,0a4.61,4.61,0,0,1-.17-2.15q0-29.37,0-58.74C82.37,139.77,82.61,139,82.13,138.36Z"/><path class="cls-2" d="M155.09,111.58q-47,0-94,0c-1.79,0-2.22-.46-2.13-2.18.16-2.78.12-5.59,0-8.37a2.45,2.45,0,0,1,1.66-2.69Q89.37,84.65,118,70.8q17.86-8.61,35.71-17.26a3,3,0,0,1,2.93,0Q203.19,76,249.75,98.41a2.29,2.29,0,0,1,1.65,2.49c-.13,3-.12,6,0,9,0,1.41-.35,1.75-1.75,1.74-12.17-.06-24.34,0-36.51,0Z"/><path class="cls-2" d="M69.45,229.22c0-4.71,0-9.43-.07-14.15,0-1.4.37-1.78,1.77-1.77,8,.07,16.08,0,24.13,0q71.68,0,143.37,0c1.92,0,2.45.44,2.38,2.38-.17,4.51-.07,9-.08,13.55a.42.42,0,0,1-.64-.2c-.56-1.27-.33-2.62-.35-3.94q-.06-4.28,0-8.57c0-1.52-.63-2.2-2.14-2.13-.6,0-1.2,0-1.79,0H74.37c-3.92,0-3.92,0-3.92,3.93,0,2.73,0,5.45,0,8.18a5.51,5.51,0,0,1-.35,2.54A.42.42,0,0,1,69.45,229.22Z"/><path class="cls-2" d="M243,123.62c-.53,0-1.06-.06-1.59-.06q-86.18,0-172.35,0c-.53,0-1.06,0-1.59.06a.23.23,0,0,1-.38,0c.54-.76,1.34-.44,2-.44q86.13,0,172.25,0c.69,0,1.49-.32,2,.44A.24.24,0,0,1,243,123.62Z"/><path class="cls-2" d="M69.45,229.22a.52.52,0,0,0,.37,0c1.12-.82,2.43-.55,3.67-.55q39.17,0,78.32,0,42.56,0,85.1,0c1.24,0,2.54-.27,3.67.55a.52.52,0,0,0,.37,0c-.46.74-1.19.46-1.81.46H71.26C70.64,229.68,69.9,230,69.45,229.22Z"/><path class="cls-2" d="M82.13,138.36c.79.43.42,1.18.43,1.78q0,30.62,0,61.23c-.76-.62-.36-1.47-.36-2.2q0-29.21,0-58.42C82.17,140,82.14,139.15,82.13,138.36Z"/><path class="cls-2" d="M112.86,201.29q0-30.37.06-60.74c0-.74-.39-1.61.43-2.21q0,30.3,0,60.58c0,.8,0,1.59-.07,2.39C113.09,201.51,113,201.51,112.86,201.29Z"/><path class="cls-2" d="M139.59,138.35c.81.6.42,1.46.43,2.2q0,29.17,0,58.36c0,.79,0,1.59,0,2.38-.11.21-.23.23-.36,0,0-2.52-.08-5-.08-7.57Q139.61,166.05,139.59,138.35Z"/><path class="cls-2" d="M170.31,201.29q0-30.37.07-60.75c0-.73-.38-1.6.43-2.19q0,30.28-.05,60.58c0,.79,0,1.58-.08,2.38C170.55,201.52,170.43,201.51,170.31,201.29Z"/><path class="cls-2" d="M197.05,138.34c.82.6.43,1.48.43,2.21q0,30.38.05,60.74c-.11.21-.23.23-.36,0,0-5.31-.06-10.63-.07-15.94Q197.07,161.86,197.05,138.34Z"/><path class="cls-2" d="M227.83,201.37q0-30.62,0-61.24c0-.59-.37-1.35.43-1.78q0,30.42-.07,60.82C228.2,199.9,228.6,200.75,227.83,201.37Z"/><path class="cls-2" d="M170.31,201.29a1.56,1.56,0,0,0,.37,0c-.39.68-1.06.44-1.62.44q-13.86,0-27.73,0c-.56,0-1.22.23-1.61-.44a1.45,1.45,0,0,0,.36,0Z"/><path class="cls-2" d="M112.86,201.29a1.51,1.51,0,0,0,.37,0c-.32.62-.91.44-1.41.45h-28c-.43,0-.94.15-1.26-.35l27.95,0C111.28,201.36,112.07,201.31,112.86,201.29Z"/><path class="cls-2" d="M197.17,201.31a1.45,1.45,0,0,0,.36,0l27,.07,3.36,0c-.45.59-1.1.34-1.65.34q-13.62,0-27.23,0C198.36,201.75,197.62,202.05,197.17,201.31Z"/><path class="cls-2" d="M67.05,123.61a.55.55,0,0,1,.38,0v14.62c-.71-.16-.4-.74-.4-1.13C67,132.61,67,128.11,67.05,123.61Z"/><path class="cls-2" d="M243,123.62a.58.58,0,0,1,.39,0c0,4.5,0,9,0,13.5,0,.39.3,1-.4,1.13Z"/><path class="cls-2" d="M240.58,229.21c-.6,0-1.2.08-1.79.08H71.61c-.6,0-1.19,0-1.79-.08,0-4.18,0-8.37,0-12.56,0-3.23-.38-2.91,2.83-2.91H238c2.63,0,2.63,0,2.63,2.72Z"/></g></g><m:metadata><m:parameters><m:parameter m:name="color-1" m:type="color" m:value="#8C6239"/><m:parameter m:name="color-2" m:type="color" m:value="#FFFFFF"/></m:parameters></m:metadata></svg>