<svg xmlns="http://www.w3.org/2000/svg" viewBox="0 0 310.39 310.39"><defs><style>.cls-1{fill:#8cc63f;}.cls-2{fill:#fff;}</style></defs><g id="Слой_2" data-name="Слой 2"><g id="Слой_1-2" data-name="Слой 1"><rect class="cls-1" width="310.39" height="310.39" rx="71.15"/><path class="cls-2" d="M158.87,27.69c1.9,2.46,4,4.78,5.66,7.4q19.69,31.47,39.23,63c1.87,3,2.84,6,1,9.35s-5.15,4.74-9.37,3.93c-2.27-.44-4.53-.93-7.45-1.53.74,1.09,1.15,1.72,1.6,2.32q19.53,26.64,39.07,53.25c2,2.73,2.92,5.62,1.53,8.85-1.7,3.93-5.37,5.45-10.22,4.4L202,174.8c3.16,4.44,6.05,8.49,8.94,12.53q17.7,24.72,35.39,49.45c4,5.57,1.63,12.18-4.74,13.24a12.06,12.06,0,0,1-4.88-.55Q197,238.81,157.28,228.09a8.37,8.37,0,0,0-4.1,0q-39.84,10.69-79.65,21.5c-6.73,1.82-12.13-2-11.35-8.17a12,12,0,0,1,2.31-5.12q20.88-29.34,41.9-58.58c.57-.8,1.11-1.62,2-2.87-6.29,1.36-12.09,2.6-17.88,3.86-5.49,1.18-9.67-1.17-10.75-6.07-.61-2.76.5-5,2.06-7.17Q101,139.2,120.27,113c.63-.86,1.23-1.74,2.18-3.07l-7.15,1.4c-3.59.7-6.83.22-9.11-3s-1.91-6.37.06-9.54q20.9-33.64,41.83-67.26c.94-1.49,2.52-2.57,3.8-3.85Z"/><path class="cls-2" d="M155.12,282.69c-5.15,0-10.31,0-15.46,0-5.39,0-9.13-3.18-9.34-8.59-.3-7.89-.15-15.79-.09-23.69a2.21,2.21,0,0,1,1.34-1.61q11.35-3.2,22.78-6.19a4.46,4.46,0,0,1,2.14.12c7.29,1.94,14.55,4,21.85,5.83,1.51.39,2,1,2,2.52-.07,7.32,0,14.64-.05,21.95-.05,6-3.8,9.65-9.91,9.66Z"/></g></g></svg>