<svg xmlns="http://www.w3.org/2000/svg" viewBox="0 0 310.39 310.39" xmlns:m="https://www.mapbox.com"><defs><style>.cls-2{fill:#fff}</style></defs><g id="Слой_2" data-name="Слой 2"><g id="Слой_1-2" data-name="Слой 1"><rect width="310.39" height="310.39" rx="71.15" style="fill:#8cc63f"/><path class="cls-2" d="M104.27,159.81c1.64-3.45,4.25-4.59,7.71-4.57q24.22.09,48.46,0a5.73,5.73,0,0,0,3.2-1.09,17.4,17.4,0,0,0,3.07-24.64c-2.6-3.34-2.16-5.12,1.71-6.85a17.55,17.55,0,0,0-13.6-32.36c-3.39,1.31-5.59-1-5.51-3.7.31-10.61-4.21-18.81-13.49-23.87s-18.76-4.43-27.54,1.63c-6,4.17-9.43,10.14-10.65,17.37C97.24,84,95.79,85.49,94,85a6.57,6.57,0,0,1-3.1-2.1c-4.71-5.43-10.6-7.67-17.59-6.14A16.61,16.61,0,0,0,60,89.75c-1.7,6.9.41,12.81,5.7,17.53,3.08,2.74,3.11,4.33,0,7a17.52,17.52,0,0,0,19,29.15c3.5-1.67,4.81-1.13,6.31,2.45A26,26,0,0,0,104.27,159.81Zm6.53,22.73c.58,0,1,.08,1.32.08H243.63c2.73,0,4-1.27,4-4,0-3.93,0-7.86,0-11.79,0-3.59-1.12-4.72-4.68-4.72q-65.1,0-130.2,0c-.65,0-1.3.06-2,.09Zm0,34.37H242.23a17.54,17.54,0,0,0,2.05-.05,3.48,3.48,0,0,0,3.34-3.38,3.52,3.52,0,0,0-3.48-3.46c-.44,0-.87,0-1.31,0h-132ZM97.08,163.85v2.4c0,12.47.13,24.95-.08,37.43-.12,6.84-.67,13.69-1.32,20.5a30.09,30.09,0,0,1-4.6,13h26.37V223.74c-2.22,0-4.33,0-6.43,0a6.82,6.82,0,0,1-7.09-7.06c0-2.19,0-4.37,0-6.55a6.79,6.79,0,0,1,7-6.94c1,0,2.07,0,3.09,0V189.46h-2.48c-5,0-7.62-2.65-7.63-7.62,0-4.49,0-9,0-13.48a2.11,2.11,0,0,0-.8-1.59C101.25,165.76,99.32,164.91,97.08,163.85Zm24.11,25.71v13.5h9.95v-13.5Zm17-.08v13.58H145c0-4.27,0-8.43,0-12.58a1.4,1.4,0,0,0-1-1C142.1,189.43,140.24,189.48,138.23,189.48Zm81.94,0c-2,0-3.93,0-5.83,0-.33,0-.9.55-.9.84-.06,4.22,0,8.43,0,12.67h6.77Zm-89,47.79V223.86h-6.58v13.41Zm96-13.47v13.48h6.58V223.8Z"/><path class="cls-2" d="M61.66,251.1c-.37-.31-.77-.6-1.11-.93-1-1-1.62-2.34-.86-3.54a8.84,8.84,0,0,1,2.87-2.28c.36-.23,1-.06,1.47-.06q91.17,0,182.35,0c2.08,0,3.63.53,4.66,2.34v4.49Z"/><path class="cls-2" d="M104.27,159.81a26,26,0,0,1-13.38-13.88c-1.5-3.58-2.81-4.12-6.31-2.45a17.52,17.52,0,0,1-19-29.15c3.15-2.72,3.12-4.31,0-7-5.29-4.72-7.4-10.63-5.7-17.53a16.61,16.61,0,0,1,13.31-13c7-1.53,12.88.71,17.59,6.14A6.57,6.57,0,0,0,94,85c1.83.46,3.28-1,3.67-3.32,1.22-7.23,4.61-13.2,10.65-17.37,8.78-6.06,18.19-6.74,27.54-1.63S149.62,76,149.31,86.58c-.08,2.67,2.12,5,5.51,3.7a17.55,17.55,0,0,1,13.6,32.36c-3.87,1.73-4.31,3.51-1.71,6.85a17.4,17.4,0,0,1-3.07,24.64,5.73,5.73,0,0,1-3.2,1.09q-24.24.1-48.46,0C108.52,155.22,105.91,156.36,104.27,159.81Z"/><path class="cls-2" d="M110.8,182.54V162.17c.66,0,1.31-.09,2-.09q65.1,0,130.2,0c3.56,0,4.67,1.13,4.68,4.72,0,3.93,0,7.86,0,11.79,0,2.76-1.27,4-4,4H112.12C111.75,182.62,111.38,182.58,110.8,182.54Z"/><path class="cls-2" d="M110.79,216.91V210h132c.44,0,.87,0,1.31,0a3.52,3.52,0,0,1,3.48,3.46,3.48,3.48,0,0,1-3.34,3.38,17.54,17.54,0,0,1-2.05.05H110.79Z"/><path class="cls-2" d="M97.08,163.85c2.24,1.06,4.17,1.91,6,2.92a2.11,2.11,0,0,1,.8,1.59c.06,4.49,0,9,0,13.48,0,5,2.64,7.59,7.63,7.62H114v13.72c-1,0-2,0-3.09,0a6.79,6.79,0,0,0-7,6.94c0,2.18,0,4.36,0,6.55a6.82,6.82,0,0,0,7.09,7.06c2.1,0,4.21,0,6.43,0v13.49H91.08a30.09,30.09,0,0,0,4.6-13c.65-6.81,1.2-13.66,1.32-20.5.21-12.48.07-25,.08-37.43Z"/><path class="cls-2" d="M121.19,189.56h9.95v13.5h-9.95Z"/><path class="cls-2" d="M138.23,189.48c2,0,3.87,0,5.72,0a1.4,1.4,0,0,1,1,1c.07,4.15,0,8.31,0,12.58h-6.74Z"/><path class="cls-2" d="M220.17,189.48V203H213.4c0-4.24,0-8.45,0-12.67,0-.29.57-.82.9-.84C216.24,189.44,218.16,189.48,220.17,189.48Z"/><path class="cls-2" d="M131.15,237.27h-6.58V223.86h6.58Z"/><path class="cls-2" d="M227.18,223.8h6.58v13.48h-6.58Z"/></g></g><m:metadata><m:parameters><m:parameter m:name="color-1" m:type="color" m:value="#8CC63F"/><m:parameter m:name="color-2" m:type="color" m:value="#FFFFFF"/></m:parameters></m:metadata></svg>