<svg xmlns="http://www.w3.org/2000/svg" viewBox="0 0 310.39 310.39" xmlns:m="https://www.mapbox.com"><defs><style>.cls-2{fill:#fff}</style></defs><g id="Слой_2" data-name="Слой 2"><g id="Слой_1-2" data-name="Слой 1"><rect width="310.39" height="310.39" rx="71.15" style="fill:#8c6239"/><path class="cls-2" d="M59.43,134.1c.39-1,.73-1.95,1.16-2.89,2.34-5,7.13-7.19,12.37-5.47a97.2,97.2,0,0,0,22.58,4.74,89.6,89.6,0,0,0,47.84-9,77.9,77.9,0,0,0,14.18-8.6c7.49-6,16-.75,17.5,6.72,1,5.24,1.77,10.54,2.6,15.83,1.47,9.28,3.12,18.53,4.3,27.85,3.31,26.32-2.74,49.83-21.5,69.33-4.2,4.35-8.47,8.66-13,12.68-6.39,5.68-14.09,7.48-21.91,4.16-9.88-4.21-19.74-8.73-28.35-15.34C81.46,222.05,71.73,206,67.4,186.76c-2.18-9.69-3.36-19.61-5-29.43-1-5.84-1.82-11.68-2.74-17.52,0-.17-.18-.31-.28-.47ZM150,199.53a8.71,8.71,0,0,0,0-2.23c-.27-1-.6-2.27-1.3-2.62s-1.94.21-2.79.65c-3.08,1.61-6,3.67-9.15,4.94a36.71,36.71,0,0,1-26.27.47c-2.46-.85-3.58.14-3.18,2.69,0,.24,0,.5.09.74a21.86,21.86,0,0,0,23.16,16.74A21.6,21.6,0,0,0,150,199.53Zm16.77-39.62a12.16,12.16,0,0,0-1.8-3.25c-9-9.1-24.95-6.57-30.7,4.78a5.51,5.51,0,0,0,3.34,7.94c2.52.78,4.71-.14,6.51-2.73,2.68-3.88,6-5.34,9.69-4a23.76,23.76,0,0,1,4.14,2.48,5.49,5.49,0,0,0,5.83.35C165.74,164.5,166.61,162.78,166.78,159.91Zm-69.85-.43c-6.92.21-12.56,3.83-16.26,10.35a7,7,0,0,0-.3,4.62,4.6,4.6,0,0,0,4.19,3.47,5.48,5.48,0,0,0,5.73-2.68c1.66-2.58,3.79-4.45,7-4.58,2.67-.11,4.72,1.23,6.75,2.75a5.53,5.53,0,0,0,7-8.6A20.49,20.49,0,0,0,96.93,159.48Z"/><path class="cls-2" d="M148.13,59.25c5.74,3.44,11.3,7.22,17.24,10.25a89.44,89.44,0,0,0,49.41,9.31A83.56,83.56,0,0,0,237,74c8-3,14.14,3.62,14,10a115.45,115.45,0,0,1-1.6,13.7C248,107.45,246.58,117.25,245,127c-4.43,28-17.69,49.92-43.43,63.29l-9.35,4.85c.31-2.27.58-4.27.86-6.27,1.56-11.09.84-22.1-1-33.1-1.93-11.53-3.7-23.1-5.39-34.66-1.09-7.41-3.94-13.72-10.23-18.14a20.34,20.34,0,0,0-23.94,0,88.87,88.87,0,0,1-21.73,11.84c-.73.27-1.48.47-2.51.8.69-4.92,1.31-9.52,2-14.12,1.43-9.73,3.08-19.42,4.28-29.17.76-6.11,3.11-10.76,9.06-13.1Z"/></g></g><m:metadata><m:parameters><m:parameter m:name="color-1" m:type="color" m:value="#8C6239"/><m:parameter m:name="color-2" m:type="color" m:value="#FFFFFF"/></m:parameters></m:metadata></svg>