<svg xmlns="http://www.w3.org/2000/svg" viewBox="0 0 310.39 310.39" xmlns:m="https://www.mapbox.com"><defs/><g id="Слой_2" data-name="Слой 2"><g id="Слой_1-2" data-name="Слой 1"><rect width="310.39" height="310.39" rx="71.15" style="fill:#8c6239"/><path d="M283,197v12.48c-.2.95-.45,1.89-.61,2.84-5.73,33.68-37.75,55.39-70.84,48-24.45-5.43-43.21-26.65-45.36-51.37-.32-3.61-.42-7.24-.63-10.86H145c-.42,5-.5,9.8-1.29,14.53A58.54,58.54,0,1,1,30.88,183.35c5-14,10.37-27.8,15.59-41.69,8.79-23.35,17.39-46.78,26.47-70,6.6-16.86,25.19-26.15,42.74-22a37.32,37.32,0,0,1,29,36.23c.08,15,0,29.94,0,44.92v2.81h21.07c0-14.93,0-29.65,0-44.36a82.52,82.52,0,0,1,.45-8.46c1.74-16.68,17.58-31.44,34.33-32,17.59-.64,31.71,8.67,37.91,25.11q20.29,53.9,40.45,107.83C280.75,186.58,281.66,191.85,283,197ZM86.27,166a37.22,37.22,0,0,0-.38,74.43A37.22,37.22,0,0,0,86.27,166Zm138.22,0a37.22,37.22,0,1,0,37.09,37.55A37.27,37.27,0,0,0,224.49,166Z" style="fill:#fff"/></g></g><m:metadata><m:parameters><m:parameter m:name="color-1" m:type="color" m:value="#8C6239"/><m:parameter m:name="color-2" m:type="color" m:value="#FFFFFF"/></m:parameters></m:metadata></svg>